<?xml version="1.0" encoding="UTF-8" standalone="no"?>
<!-- Created with Inkscape (http://www.inkscape.org/) -->

<svg
   xmlns:dc="http://purl.org/dc/elements/1.1/"
   xmlns:cc="http://creativecommons.org/ns#"
   xmlns:rdf="http://www.w3.org/1999/02/22-rdf-syntax-ns#"
   xmlns:svg="http://www.w3.org/2000/svg"
   xmlns="http://www.w3.org/2000/svg"
   xmlns:sodipodi="http://sodipodi.sourceforge.net/DTD/sodipodi-0.dtd"
   xmlns:inkscape="http://www.inkscape.org/namespaces/inkscape"
   width="680.67871"
   height="163.87793"
   id="svg2"
   version="1.1"
   inkscape:version="0.48.4 r9939"
   sodipodi:docname="toefl.svg">
  <defs
     id="defs4" />
  <sodipodi:namedview
     id="base"
     pagecolor="#ffffff"
     bordercolor="#666666"
     borderopacity="1.0"
     inkscape:pageopacity="0.0"
     inkscape:pageshadow="2"
     inkscape:zoom="0.7"
     inkscape:cx="552.46249"
     inkscape:cy="-5.8454697"
     inkscape:document-units="px"
     inkscape:current-layer="layer1"
     showgrid="false"
     showguides="true"
     inkscape:guide-bbox="true"
     fit-margin-top="0"
     fit-margin-left="0"
     fit-margin-right="0"
     fit-margin-bottom="0"
     inkscape:window-width="1680"
     inkscape:window-height="975"
     inkscape:window-x="-9"
     inkscape:window-y="-9"
     inkscape:window-maximized="1" />
  <metadata
     id="metadata7">
    <rdf:RDF>
      <cc:Work
         rdf:about="">
        <dc:format>image/svg+xml</dc:format>
        <dc:type
           rdf:resource="http://purl.org/dc/dcmitype/StillImage" />
        <dc:title></dc:title>
      </cc:Work>
    </rdf:RDF>
  </metadata>
  <g
     inkscape:label="Layer 1"
     inkscape:groupmode="layer"
     id="layer1"
     transform="translate(-25.191986,-470.02871)">
    <path
       style="fill:#004b8e;fill-opacity:1;stroke:none"
       d="m 172.67518,540.34109 c 0.002,-11.23659 7.97454,-20.71694 26.76904,-20.58185 12.89142,0.16666 16.92005,3.03045 16.92005,3.03045 l -4.45098,11.80616 c -4.41638,-1.6389 -7.29818,-2.926 -13.35296,-3.03046 -6.05478,-0.10446 -11.45951,3.0697 -10.89071,6.7554 0.74284,4.66375 7.63922,6.89053 13.16356,9.75429 5.52434,2.86376 11.86118,7.89199 11.74302,16.35184 0.0397,16.69891 -16.62634,21.54113 -27.02158,21.74985 -10.39524,0.20872 -16.76869,-2.47598 -21.08693,-5.05077 l 4.92449,-11.45891 c 4.96356,1.81106 10.74582,4.43706 17.14102,4.51411 6.39521,0.077 10.65243,-2.6249 10.76444,-7.3236 0.0489,-5.14064 -10.33876,-9.10157 -13.38452,-10.6066 -3.04576,-1.50503 -11.20792,-6.63569 -11.23794,-15.90991 z"
       id="path3010"
       inkscape:connector-curvature="0"
       sodipodi:nodetypes="cccczczcccczczc" />
    <path
       style="fill:#004b8e;fill-opacity:1;stroke:none"
       d="m 144.4826,585.04034 9.75729,-52.40166 14.52842,0 c 2.74062,-8.56139 7.68019,-10.28157 12.5,-12.37437 l -54.55357,0 -2.41071,12.37437 15.44643,0 -9.46429,52.40166 z"
       id="path3018"
       inkscape:connector-curvature="0"
       sodipodi:nodetypes="ccccccccc" />
    <path
       style="fill:#004b8e;fill-opacity:1;stroke:none"
       d="m 68.411162,585.04034 43.124998,0 2.14286,-12.14983 -28.571428,0 2.85714,-14.91072 25.624998,0 2.14287,-12.05357 -25.446438,0 2.32143,-13.28754 26.964288,0 2.5,-12.37437 -41.696428,0 z"
       id="path3020"
       inkscape:connector-curvature="0"
       sodipodi:nodetypes="ccccccccccccc" />
    <path
       style="fill:#8a2529;fill-opacity:1;stroke:none"
       d="m 97.696872,509.67622 c 0,0 33.156698,-40.14428 92.142868,-39.64285 51.54472,0.43818 72.38302,29.94159 73.03572,58.75 0.64228,28.34873 -33.03572,56.25697 -33.03572,56.25697 0,0 16.65359,-23.48189 16.42858,-48.93554 -0.2736,-30.95003 -21.45662,-53.53498 -66.25,-54.28572 -44.43845,-0.74478 -82.321448,27.85714 -82.321448,27.85714 z"
       id="path3022"
       inkscape:connector-curvature="0"
       sodipodi:nodetypes="csscssc" />
    <path
       style="fill:#004b8e;fill-opacity:1;stroke:none"
       d="m 104.29729,492.02468 c -31.326548,9.98933 -79.346978,44.01769 -79.104388,83.79802 0.20456,33.54524 30.89681,58.01514 82.832498,58.08377 79.52719,0.10509 120.2072,-47.7947 120.2072,-47.7947 0,0 -40.82437,35.00272 -108.21429,36.95731 -32.241798,0.93514 -77.840988,-12.07332 -77.142858,-51.60714 0.87066,-49.30417 61.421838,-79.43726 61.421838,-79.43726 z"
       id="path3026"
       inkscape:connector-curvature="0"
       sodipodi:nodetypes="csscssc" />
    <g
       transform="matrix(0.9712286,0,0,1.0296237,-2.8388376,244.4569)"
       style="font-size:15.66735363px;font-style:normal;font-variant:normal;font-weight:normal;font-stretch:normal;line-height:125%;letter-spacing:0px;word-spacing:0px;fill:#004b8e;fill-opacity:1;stroke:none;font-family:Arial;-inkscape-font-specification:Arial"
       id="text3796">
      <path
         d="m 263.11137,344.56558 -1.87427,0 -0.94096,-2.64692 c -0.18871,-0.52531 -0.44498,-0.92056 -0.76883,-1.18577 -0.32386,-0.26519 -0.75864,-0.39779 -1.30434,-0.3978 l -2.18792,0 0,4.23049 -1.72892,0 0,-10.3735 4.60535,0 c 0.5508,1e-5 1.05825,0.0485 1.52236,0.14535 0.4641,0.0969 0.86318,0.25884 1.19724,0.48578 0.33405,0.22696 0.59415,0.52787 0.78031,0.90271 0.18614,0.37486 0.27922,0.84024 0.27923,1.39614 -1e-5,0.72931 -0.19764,1.32347 -0.59288,1.78247 -0.39527,0.45901 -0.955,0.75736 -1.6792,0.89506 0.3774,0.1479 0.69743,0.38633 0.96009,0.71528 0.26264,0.32895 0.49087,0.75608 0.68468,1.28139 z m -7.07632,-5.6993 2.69283,0 c 0.3825,0 0.71145,-0.0306 0.98686,-0.0918 0.27539,-0.0612 0.50107,-0.1581 0.67703,-0.29071 0.17594,-0.13259 0.30599,-0.30472 0.39015,-0.51638 0.0841,-0.21164 0.12622,-0.46792 0.12623,-0.76883 -10e-6,-0.5406 -0.16194,-0.94478 -0.48578,-1.21254 -0.32386,-0.26774 -0.82749,-0.40162 -1.51089,-0.40163 l -2.87643,0 z"
         style="font-weight:bold;text-align:start;writing-mode:lr-tb;text-anchor:start;fill:#004b8e;font-family:Shruti;-inkscape-font-specification:Shruti Bold"
         id="path3803"
         inkscape:connector-curvature="0" />
    </g>
    <path
       sodipodi:type="arc"
       style="fill:none;stroke:#004b8e;stroke-opacity:1"
       id="path3800"
       sodipodi:cx="251.25"
       sodipodi:cy="349.50504"
       sodipodi:rx="8.5714283"
       sodipodi:ry="8.5714283"
       d="m 259.82143,349.50504 c 0,4.73386 -3.83756,8.57142 -8.57143,8.57142 -4.73387,0 -8.57143,-3.83756 -8.57143,-8.57142 0,-4.73387 3.83756,-8.57143 8.57143,-8.57143 4.73387,0 8.57143,3.83756 8.57143,8.57143 z"
       transform="translate(-2.8388376,244.4569)" />
    <g
       id="g3805"
       style="font-size:15.66735363px;font-style:normal;font-variant:normal;font-weight:normal;font-stretch:normal;line-height:125%;letter-spacing:0px;word-spacing:0px;fill:#004b8e;fill-opacity:1;stroke:none;font-family:Arial;-inkscape-font-specification:Arial"
       transform="matrix(0.9712286,0,0,1.0296237,445.54925,268.83539)">
      <path
         id="path3807"
         style="font-weight:bold;text-align:start;writing-mode:lr-tb;text-anchor:start;fill:#004b8e;font-family:Shruti;-inkscape-font-specification:Shruti Bold"
         d="m 263.11137,344.56558 -1.87427,0 -0.94096,-2.64692 c -0.18871,-0.52531 -0.44498,-0.92056 -0.76883,-1.18577 -0.32386,-0.26519 -0.75864,-0.39779 -1.30434,-0.3978 l -2.18792,0 0,4.23049 -1.72892,0 0,-10.3735 4.60535,0 c 0.5508,1e-5 1.05825,0.0485 1.52236,0.14535 0.4641,0.0969 0.86318,0.25884 1.19724,0.48578 0.33405,0.22696 0.59415,0.52787 0.78031,0.90271 0.18614,0.37486 0.27922,0.84024 0.27923,1.39614 -1e-5,0.72931 -0.19764,1.32347 -0.59288,1.78247 -0.39527,0.45901 -0.955,0.75736 -1.6792,0.89506 0.3774,0.1479 0.69743,0.38633 0.96009,0.71528 0.26264,0.32895 0.49087,0.75608 0.68468,1.28139 z m -7.07632,-5.6993 2.69283,0 c 0.3825,0 0.71145,-0.0306 0.98686,-0.0918 0.27539,-0.0612 0.50107,-0.1581 0.67703,-0.29071 0.17594,-0.13259 0.30599,-0.30472 0.39015,-0.51638 0.0841,-0.21164 0.12622,-0.46792 0.12623,-0.76883 -10e-6,-0.5406 -0.16194,-0.94478 -0.48578,-1.21254 -0.32386,-0.26774 -0.82749,-0.40162 -1.51089,-0.40163 l -2.87643,0 z"
         inkscape:connector-curvature="0" />
    </g>
    <path
       d="m 259.82143,349.50504 c 0,4.73386 -3.83756,8.57142 -8.57143,8.57142 -4.73387,0 -8.57143,-3.83756 -8.57143,-8.57142 0,-4.73387 3.83756,-8.57143 8.57143,-8.57143 4.73387,0 8.57143,3.83756 8.57143,8.57143 z"
       sodipodi:ry="8.5714283"
       sodipodi:rx="8.5714283"
       sodipodi:cy="349.50504"
       sodipodi:cx="251.25"
       id="path3809"
       style="fill:none;stroke:#004b8e;stroke-opacity:1"
       sodipodi:type="arc"
       transform="translate(445.54925,268.83539)" />
    <path
       style="fill:#004b8e;fill-opacity:1;stroke:none"
       d="m 587.64535,627.18867 29.04188,-151.07142 83.59013,0 -4.29315,22.58917 -57.83124,0 -7.3236,39.39595 54.04316,0 -4.16688,21.46574 -53.85867,0 -8.39286,45.20432 60.10496,0 -4.2121,22.41624 z"
       id="path3829"
       inkscape:connector-curvature="0" />
    <path
       style="fill:#004b8e;fill-opacity:1;stroke:none"
       d="m 377.76786,319.14579 52.5,0.0893 -14.73214,75.71429 c 0,0 -22.94858,8.4169 -45.89286,8.19262 -50.28927,-0.49156 -67.2484,-32.44451 -67.12661,-63.37119 0.18135,-46.05493 32.98568,-90.27081 95.07304,-90.70346 18.72835,-0.13051 37.76785,6.875 37.76785,6.875 l -8.125,22.04274 c 0,0 -11.95107,-6.44753 -32.23214,-6.3393 -44.00885,0.23486 -64.48144,36.89944 -64.01786,68.03571 0.31297,21.02083 10.38057,41.67617 42.76786,41.60714 11.11045,-0.0237 19.55357,-3.30357 19.55357,-3.30357 l 7.27679,-38.03571 -26.25,0 z"
       id="path3862"
       inkscape:connector-curvature="0"
       transform="translate(28.030818,225.57181)"
       sodipodi:nodetypes="cccsssccssscccc" />
    <path
       style="fill:#004b8e;fill-opacity:1;stroke:none"
       d="m 501,249.78125 c -12.68116,0.22938 -32.96875,3.375 -32.96875,3.375 l -28.21875,148.4375 25.90625,0 11.59375,-62.1875 17.34375,0.375 c 7.19183,0.14674 15.17965,8.3497 16.03125,14.75 l 5.03125,47.0625 27.4375,0 c -2.90314,-2.86259 -3.75064,-16.23483 -4.5,-25.40625 -1.28728,-15.75487 -0.0884,-37.2496 -16.78125,-45.53125 16.55747,-7.78537 35.24795,-17.01283 35.15625,-43.6875 -0.10279,-29.90758 -28.49273,-36.7782 -53.59375,-37.1875 -0.76952,-0.0126 -1.59209,-0.0153 -2.4375,0 z m 2.21875,20.53125 c 24.51653,0.37783 26.65451,14.50204 26.59375,20 -0.2216,20.05133 -16.48072,29.41328 -35.53125,29.8125 l -13.21875,-0.34375 9.125,-48.40625 c 0,0 9.64336,-1.11471 13.03125,-1.0625 z"
       transform="translate(28.030818,225.57181)"
       id="path3866"
       inkscape:connector-curvature="0" />
  </g>
</svg>
