<svg version="1.1" id="Layer_1" xmlns="http://www.w3.org/2000/svg" xmlns:xlink="http://www.w3.org/1999/xlink" x="0px" y="0px"
	 width="100%" viewBox="0 0 831 347" enable-background="new 0 0 831 347" xml:space="preserve">
<path fill="#FFFEFE" opacity="1.000000" stroke="none" 
	d="
M515.000000,348.000000 
	C344.833374,348.000000 175.166718,347.985596 5.500151,348.093811 
	C1.750996,348.096191 0.901603,347.249878 0.905463,343.500000 
	C1.021619,230.666794 1.019949,117.833443 0.904721,5.000250 
	C0.901225,1.576611 1.576078,0.904571 4.999881,0.905849 
	C279.333130,1.008253 553.666382,1.008245 827.999634,0.905912 
	C831.422485,0.904635 832.098877,1.575198 832.095337,4.999794 
	C831.980103,117.999649 831.980103,230.999664 832.095276,343.999542 
	C832.098755,347.422699 831.425049,348.099335 828.000244,348.095490 
	C723.833557,347.978363 619.666809,348.000000 515.000000,348.000000 
z"/>
<path fill="#F89D1E" opacity="1.000000" stroke="none" 
	d="
M181.718506,180.533630 
	C179.310196,179.951172 178.339401,181.577057 177.273575,182.311722 
	C169.797516,187.464890 162.405258,192.739670 154.679291,198.101288 
	C151.911774,196.455597 152.502838,193.767975 152.487396,191.380341 
	C152.396149,177.268066 152.468536,163.155029 152.435013,149.042343 
	C152.417938,141.856949 152.126129,141.596527 144.775558,141.562164 
	C142.119522,141.549744 139.463104,141.575531 136.806900,141.595581 
	C133.912552,141.617416 132.666122,142.988464 132.564682,145.864441 
	C132.454895,148.976974 133.098785,152.205551 131.138672,155.445190 
	C130.459885,155.172867 130.063507,154.636826 129.816467,154.039062 
	C127.998131,149.639221 123.143997,145.497406 124.398781,141.138519 
	C125.622734,136.886719 131.220932,134.669601 135.056564,131.777603 
	C163.601273,110.255363 195.811890,96.251999 229.827621,86.115929 
	C265.164154,75.586281 301.357635,69.592049 337.999817,65.836739 
	C384.134186,61.108620 430.382141,60.215904 476.679077,61.250340 
	C522.954590,62.284298 569.133423,65.200706 615.200989,69.780251 
	C623.479431,70.603210 631.770691,71.297218 640.485840,72.089706 
	C641.058594,72.264000 641.201660,72.399345 641.172791,72.774902 
	C616.059998,74.359795 591.101440,75.441513 566.182556,77.114426 
	C533.632996,79.299622 501.177582,82.495819 468.821320,86.790123 
	C430.531219,91.871964 392.563416,98.613037 355.104736,108.013985 
	C305.094635,120.564957 256.660736,137.425278 211.167221,162.046753 
	C204.590637,165.606064 197.914825,169.015320 191.688385,173.954910 
	C191.233383,174.732620 190.880554,174.907272 190.247375,175.171661 
	C189.270874,175.606171 188.633163,176.028458 187.879272,176.794861 
	C187.518906,177.129471 187.367615,177.255539 186.963776,177.533310 
	C186.020142,178.017517 185.286987,178.258621 184.388428,178.796021 
	C184.002594,179.043915 183.849731,179.142365 183.468445,179.382568 
	C182.940323,179.707657 182.645523,179.898499 181.718506,180.533630 
z"/>
<path fill="#9A2E32" opacity="1.000000" stroke="none" 
	d="
M191.987579,174.066437 
	C197.075378,173.424240 201.748932,171.119675 206.950317,170.668060 
	C222.084106,169.354111 235.335114,172.679413 245.425140,185.220871 
	C245.621475,184.749191 245.908920,184.366882 245.924011,183.974091 
	C246.057480,180.502548 244.795593,175.772919 246.574051,173.865891 
	C248.936951,171.332123 253.776703,173.054169 257.539856,173.003357 
	C267.159027,172.873459 267.160217,172.960052 267.160217,182.471420 
	C267.160187,210.294052 267.089722,238.117050 267.242554,265.938843 
	C267.263428,269.738892 266.460358,271.313629 262.362000,270.951691 
	C258.063843,270.572113 253.701050,270.739532 249.376465,270.914276 
	C246.844589,271.016571 245.708664,270.344543 245.903824,267.608398 
	C246.111664,264.694580 245.950577,261.754517 245.950577,257.803467 
	C238.536377,266.058746 230.167053,270.886322 220.371552,272.973755 
	C196.800751,277.996674 173.309174,263.886322 166.506790,239.468369 
	C160.486710,217.858536 163.916580,197.869400 181.001587,181.302795 
	C181.080338,180.968750 181.009933,180.987564 181.018219,181.023056 
	C181.245331,180.806671 181.405899,180.521927 181.658951,180.008652 
	C182.050598,179.580612 182.328369,179.407318 182.855515,179.168182 
	C183.068039,179.043304 183.009888,179.004181 183.016891,179.038513 
	C183.993500,178.101746 185.406662,178.055511 186.787338,177.199997 
	C187.049988,177.006088 186.998291,176.992615 186.999390,177.019302 
	C187.636841,176.236328 188.603668,175.841736 189.588715,174.985352 
	C190.368790,174.498779 190.993347,174.541702 191.816483,174.211487 
	C192.062241,174.038101 191.989685,174.029999 191.987579,174.066437 
z"/>
<path fill="#9A2E32" opacity="1.000000" stroke="none" 
	d="
M104.054977,215.126282 
	C94.162003,221.146622 83.526878,221.303970 72.804092,221.183914 
	C63.211170,221.076508 63.210228,221.161652 63.210213,230.850296 
	C63.210194,242.678162 63.037373,254.509995 63.308334,266.331635 
	C63.397434,270.218903 62.145802,271.166809 58.507004,270.944061 
	C53.527973,270.639252 48.493122,270.571747 43.525833,270.960358 
	C39.460995,271.278381 38.995892,269.558380 39.007248,266.084839 
	C39.123253,230.601639 39.078197,195.117889 39.078255,159.634293 
	C39.078262,154.303421 39.072220,148.972534 39.082878,143.641693 
	C39.086163,141.997650 38.760616,140.142029 41.400223,140.224838 
	C57.515881,140.730515 73.741302,138.731277 89.736526,141.811005 
	C106.316788,145.003342 118.593063,153.822449 121.666473,171.189041 
	C124.798782,188.888443 119.601585,204.104111 104.054977,215.126282 
z"/>
<path fill="#F89E21" opacity="1.000000" stroke="none" 
	d="
M615.331421,271.802002 
	C594.448792,265.992554 581.214478,253.063354 577.511108,231.965668 
	C573.840637,211.054977 580.040588,193.324585 597.823486,180.748688 
	C619.074768,165.720032 649.490234,170.229446 664.219299,190.705933 
	C664.219299,186.572327 664.359863,182.432343 664.172302,178.307266 
	C664.036133,175.312134 664.581421,173.859161 668.164001,173.890488 
	C676.813538,173.966187 676.815369,173.759567 676.815369,182.587860 
	C676.815308,208.078232 676.154297,233.589706 676.966614,259.054169 
	C678.255981,299.471558 642.762207,312.680542 616.174500,306.097687 
	C600.286621,302.163971 588.023621,293.660919 581.672607,277.895691 
	C580.270813,274.416199 579.889465,272.932983 584.756287,272.735260 
	C590.374451,272.507019 593.373535,274.239044 596.505005,279.114258 
	C604.505554,291.569672 616.935425,296.209595 631.359009,295.365173 
	C644.747009,294.581329 655.277283,288.831421 661.380920,276.333069 
	C664.887451,269.152771 664.271240,261.512207 664.061218,252.670059 
	C652.044128,271.165680 635.255127,275.176666 615.331421,271.802002 
z"/>
<path fill="#9A2D31" opacity="1.000000" stroke="none" 
	d="
M356.840485,183.202271 
	C362.740814,191.028595 365.892853,199.563690 366.014923,208.947266 
	C366.268250,228.427551 366.113617,247.912872 366.278137,267.394836 
	C366.303589,270.411713 365.111938,270.997101 362.452148,270.912201 
	C357.294983,270.747559 352.117584,270.657745 346.970398,270.937744 
	C343.601074,271.121063 342.815674,269.935608 342.848358,266.721069 
	C343.005798,251.235428 342.985321,235.746780 342.867554,220.260422 
	C342.839844,216.621796 342.534149,212.912842 341.761383,209.365860 
	C339.407745,198.562393 330.854797,191.969177 321.108368,193.106842 
	C310.623871,194.330673 303.126740,202.661560 303.054871,213.567993 
	C302.939728,231.052856 302.898468,248.540527 303.114105,266.023468 
	C303.162445,269.944366 302.149261,271.236816 298.178680,270.950592 
	C293.208588,270.592346 288.190308,270.765015 283.198395,270.905457 
	C280.739929,270.974640 279.614075,270.386597 279.620911,267.626801 
	C279.696350,237.152069 279.700470,206.676987 279.612366,176.202316 
	C279.604431,173.467377 280.583649,172.764206 283.092377,172.922089 
	C285.912201,173.099548 288.751831,172.962082 291.582825,172.962051 
	C300.628418,172.961929 300.628418,172.961990 301.690338,181.996262 
	C310.732483,172.455154 321.478241,168.168564 334.195953,170.070908 
	C343.258942,171.426544 350.760620,175.815811 356.840485,183.202271 
z"/>
<path fill="#F89D1F" opacity="1.000000" stroke="none" 
	d="
M467.282959,240.605194 
	C458.860016,218.207367 466.269531,194.384689 485.534485,181.079498 
	C506.813538,166.383316 529.582520,169.219406 553.025635,189.868073 
	C553.025635,177.016510 553.025635,164.603348 553.025635,152.190186 
	C553.025635,151.190430 553.025635,150.190689 553.025635,149.190933 
	C553.025635,139.880096 553.024353,140.037796 562.297607,140.112915 
	C565.516418,140.139008 566.181458,141.308426 566.118347,144.206650 
	C565.955017,151.701202 566.064026,159.201675 566.064026,166.699783 
	C566.064087,199.691452 565.910217,232.684570 566.217468,265.673370 
	C566.267883,271.084900 563.872559,271.005096 560.017273,270.958099 
	C556.291260,270.912720 552.994995,271.368622 553.754761,265.751068 
	C554.276245,261.895599 553.854675,257.912598 553.854675,253.398087 
	C529.571350,288.234192 479.894684,272.237488 467.282959,240.605194 
z"/>
<path fill="#F89E21" opacity="1.000000" stroke="none" 
	d="
M691.295654,198.372818 
	C701.791992,179.934387 722.698975,169.328445 742.261841,172.290451 
	C763.885193,175.564423 779.698608,190.401688 784.572205,211.988937 
	C787.914856,226.795425 787.722046,227.040710 772.742676,227.040726 
	C749.594360,227.040726 726.445190,227.137772 703.298401,226.948227 
	C699.299683,226.915497 698.431763,228.107040 699.230469,231.772171 
	C702.376892,246.209671 713.308899,256.730682 728.458923,259.692261 
	C742.321106,262.402069 759.746826,255.869308 766.587708,244.297318 
	C769.292969,239.721100 772.191223,238.485168 776.834351,238.976135 
	C778.638184,239.166870 780.479065,239.007263 782.918274,239.007263 
	C778.531616,251.109711 771.038513,260.083435 760.349548,266.197723 
	C742.798157,276.237488 725.082642,275.183411 708.300476,264.744202 
	C691.918640,254.554031 684.990845,238.948776 685.751648,219.798553 
	C686.046631,212.373413 687.770996,205.335220 691.295654,198.372818 
z"/>
<path fill="#F89E21" opacity="1.000000" stroke="none" 
	d="
M419.000061,199.103180 
	C428.830597,199.103195 438.191376,199.556931 447.480774,198.938446 
	C453.355286,198.547302 453.225861,201.333755 453.431702,205.621521 
	C453.653320,210.237564 452.021027,211.132401 447.774139,211.024734 
	C436.284943,210.733505 424.781830,210.809799 413.287689,210.976624 
	C408.028076,211.052948 401.191833,208.658340 397.947998,212.014313 
	C394.972015,215.093170 397.186890,221.845657 397.129791,226.976364 
	C397.025909,236.305771 397.238007,245.640259 397.026886,254.966049 
	C396.951874,258.280457 397.994385,259.166138 401.244659,259.136017 
	C417.738373,258.983246 434.238037,259.261993 450.726898,258.941284 
	C455.383148,258.850708 455.549896,261.076294 455.208954,264.350433 
	C454.908997,267.231232 456.916443,271.072021 450.947815,270.992645 
	C429.957733,270.713440 408.961395,270.829529 387.968262,270.945099 
	C384.945099,270.961761 383.981354,270.134644 383.988525,267.027893 
	C384.083130,226.040283 384.082428,185.052292 383.989777,144.064667 
	C383.982788,140.969421 384.935547,140.116470 387.968506,140.133133 
	C408.961639,140.248505 429.955963,140.243927 450.949219,140.139191 
	C454.049042,140.123734 455.774384,140.775635 455.243134,144.255920 
	C455.093994,145.232849 455.099945,146.269424 455.242310,147.248459 
	C455.797302,151.064835 454.463196,152.378372 450.394043,152.313202 
	C434.902618,152.065079 419.404785,152.187866 403.909454,152.223816 
	C396.094330,152.241943 397.145660,151.455582 397.113159,159.264648 
	C397.063934,171.094254 397.234924,182.926697 397.018585,194.752563 
	C396.953644,198.301743 398.041138,199.339951 401.508789,199.175278 
	C407.160950,198.906830 412.835205,199.103027 419.000061,199.103180 
z"/>
<path fill="#992D30" opacity="1.000000" stroke="none" 
	d="
M130.825684,156.233765 
	C130.835678,151.588959 130.974518,147.438766 130.897903,143.292542 
	C130.854019,140.918243 131.805283,140.058380 134.130798,140.098465 
	C139.443329,140.190063 144.767838,140.314713 150.069382,140.055588 
	C153.562027,139.884888 154.169540,141.412491 154.155396,144.471024 
	C154.074005,162.072830 154.158646,179.675400 154.279694,197.752365 
	C154.304260,220.683594 154.082794,243.141617 154.295181,265.595551 
	C154.338577,270.183807 152.987457,271.293396 148.721344,270.947876 
	C144.093216,270.572998 139.401047,270.675537 134.756378,270.928711 
	C131.675446,271.096649 130.742203,270.126740 130.816772,267.034485 
	C131.017273,258.720581 130.886490,250.398682 130.884674,242.079956 
	C130.878479,213.629974 130.871155,185.180008 130.825684,156.233765 
z"/>
<path fill="#9D3438" opacity="1.000000" stroke="none" 
	d="
M59.849396,301.174896 
	C57.837868,301.342316 57.399792,300.409454 56.743576,299.027985 
	C53.923466,293.090973 45.719433,290.899506 40.092094,294.433228 
	C37.970753,295.765350 36.927525,297.774597 37.014488,300.332367 
	C37.101688,302.897095 38.649368,304.283813 40.898388,304.908356 
	C45.057220,306.063293 49.268951,307.026703 53.434441,308.158905 
	C60.662712,310.123688 63.979374,314.136078 63.617119,320.347382 
	C63.256924,326.523346 58.832947,331.016846 51.924015,331.954163 
	C47.441551,332.562286 42.933422,332.556274 38.632484,330.856995 
	C34.337582,329.160034 31.417973,326.113342 30.393652,321.542419 
	C30.113649,320.292969 28.988562,318.355225 31.222250,317.867249 
	C32.812801,317.519775 34.583721,317.106140 35.676731,319.627869 
	C38.787354,326.804565 47.287888,329.513550 54.399570,325.928406 
	C56.857979,324.689117 58.132149,322.749573 58.039673,319.928833 
	C57.953445,317.298584 56.777065,315.391052 54.268974,314.644531 
	C49.816223,313.319244 45.299133,312.211731 40.821495,310.968018 
	C34.280121,309.151031 31.533630,306.176086 31.498981,300.952606 
	C31.459778,295.042175 34.743168,290.680786 40.668877,288.772064 
	C49.703506,285.861908 59.474236,289.528900 61.710236,296.885040 
	C62.116589,298.221863 64.229614,300.991241 59.849396,301.174896 
z"/>
<path fill="#9D3337" opacity="1.000000" stroke="none" 
	d="
M224.002899,308.906525 
	C226.456772,315.858185 228.815338,322.428986 231.164948,329.002930 
	C231.331116,329.467773 231.431290,329.956146 231.606964,330.597137 
	C227.540771,332.074860 225.373764,330.912354 224.058823,326.628052 
	C221.696152,318.930023 221.463730,319.001373 213.781815,319.001282 
	C204.889893,319.001190 204.889862,319.001190 201.785721,327.279907 
	C201.493988,328.057983 201.234421,328.849792 200.907196,329.612640 
	C199.891983,331.979340 197.692490,331.342285 196.137787,330.969666 
	C193.519058,330.342102 195.463409,328.587402 195.867142,327.491821 
	C200.235275,315.638184 204.762085,303.842743 209.080811,291.971466 
	C209.987671,289.478668 211.392395,288.953125 213.858582,288.880920 
	C216.452560,288.805023 217.294632,290.000183 218.011353,292.098267 
	C219.891861,297.603088 221.930084,303.053986 224.002899,308.906525 
z"/>
<path fill="#A13D41" opacity="1.000000" stroke="none" 
	d="
M379.652893,313.997894 
	C379.652344,318.994965 379.509186,323.498505 379.698395,327.988037 
	C379.838959,331.324158 377.024353,332.301758 375.837555,330.802979 
	C373.565552,327.933777 372.453491,329.924988 370.753448,330.804688 
	C365.282013,333.635925 358.279663,331.738281 355.083496,326.199066 
	C351.459503,319.918396 350.964386,313.188629 354.074554,306.556824 
	C357.653778,298.924927 365.440369,297.542114 374.209625,303.494507 
	C374.209625,299.412445 374.256744,295.897156 374.191406,292.383942 
	C374.154083,290.377167 374.217651,288.884247 376.989960,288.894287 
	C379.886566,288.904724 379.659790,290.634064 379.656403,292.509888 
	C379.643738,299.506042 379.652374,306.502197 379.652893,313.997894 
z"/>
<path fill="#A13D41" opacity="1.000000" stroke="none" 
	d="
M139.256439,300.495056 
	C139.259995,297.396301 139.308411,294.737213 139.246048,292.080719 
	C139.202515,290.226196 139.378769,288.888519 141.837296,288.909088 
	C143.983734,288.927094 144.750626,289.627075 144.738876,291.785187 
	C144.672836,303.911804 144.633133,316.039795 144.761765,328.165436 
	C144.794006,331.204559 142.381805,332.169800 141.162048,330.935364 
	C138.699890,328.443634 137.257278,330.078766 135.258255,331.033966 
	C129.758804,333.661896 122.977463,331.390778 119.871559,325.727295 
	C116.667534,319.884796 116.232391,313.674683 118.706108,307.470947 
	C121.777222,299.769043 129.444977,297.385925 136.653748,301.840332 
	C138.222275,302.809540 139.235062,303.731720 139.256439,300.495056 
z"/>
<path fill="#9D3538" opacity="1.000000" stroke="none" 
	d="
M241.284042,296.922546 
	C241.487610,299.135132 240.809006,300.990112 241.809479,302.684479 
	C250.017761,298.132812 256.639709,298.971924 260.574554,305.027252 
	C265.196564,312.140076 263.419128,325.243103 257.225006,329.719818 
	C253.181625,332.642090 247.963882,332.813538 243.680222,330.115021 
	C242.481293,329.359741 241.338684,327.276794 240.616501,330.626129 
	C240.398056,331.639252 238.525421,331.128571 237.422928,331.046478 
	C235.647095,330.914154 236.086472,329.426361 236.083908,328.369476 
	C236.054459,316.236755 236.092163,304.103790 236.037399,291.971252 
	C236.028625,290.026001 236.303558,288.930328 238.688431,288.912994 
	C241.128250,288.895233 241.399109,290.086945 241.298340,291.981873 
	C241.219025,293.473450 241.283585,294.972687 241.284042,296.922546 
z"/>
<path fill="#9E363A" opacity="1.000000" stroke="none" 
	d="
M348.531342,328.213196 
	C347.616364,332.341797 344.548615,333.235809 341.663940,330.069611 
	C339.935913,328.172882 339.178772,328.401611 337.421875,329.679718 
	C334.797699,331.588776 331.691193,332.261810 328.418701,332.003845 
	C323.545410,331.619629 320.377930,328.857117 319.841095,324.500732 
	C319.221008,319.468750 321.234894,316.035278 325.892090,314.313812 
	C329.056946,313.143982 332.432526,313.173737 335.715942,312.669830 
	C337.630890,312.375977 339.883484,312.255676 340.025879,309.461853 
	C340.166595,306.700348 338.714722,304.916992 336.201874,304.349518 
	C332.290344,303.466064 328.356934,303.362793 326.492340,307.939575 
	C325.498779,310.378387 323.578979,310.301636 322.062225,309.508118 
	C320.225433,308.547150 321.745178,306.746552 322.217346,305.560242 
	C324.117523,300.785980 330.221619,298.591492 337.353973,299.890320 
	C342.846100,300.890472 345.146088,303.619568 345.284180,309.601562 
	C345.391785,314.263306 345.396759,318.931305 345.283020,323.592560 
	C345.226624,325.902832 345.787964,327.512787 348.531342,328.213196 
z"/>
<path fill="#A03A3D" opacity="1.000000" stroke="none" 
	d="
M159.621872,316.223999 
	C160.624557,319.236694 161.472504,321.885498 162.634415,325.515106 
	C165.232437,317.700928 167.592331,310.807098 169.791809,303.862488 
	C170.446884,301.794159 171.014999,300.162537 173.716003,300.334442 
	C175.603134,300.454559 176.696945,300.752930 175.828018,302.908142 
	C171.043549,314.775116 167.511475,327.123108 162.031876,338.725098 
	C160.410461,342.158081 157.584656,343.498474 154.026337,343.708466 
	C152.278168,343.811676 151.176895,343.217438 151.173965,341.176941 
	C151.171494,339.467407 151.858261,339.122375 153.507141,338.831573 
	C158.147400,338.013275 160.564011,333.721558 158.997910,329.297058 
	C156.057907,320.991150 152.921707,312.754303 150.033432,304.431000 
	C149.629456,303.266815 147.317688,301.266815 150.387512,300.526917 
	C152.423996,300.036011 154.585739,299.909729 155.370102,303.035858 
	C156.460037,307.379791 158.076202,311.591675 159.621872,316.223999 
z"/>
<path fill="#9E363A" opacity="1.000000" stroke="none" 
	d="
M312.708130,305.457855 
	C316.098633,311.494843 316.445099,317.466980 314.043610,323.482239 
	C311.867981,328.931793 307.646576,331.813141 301.752472,332.001495 
	C295.645264,332.196625 291.077606,329.498383 288.670258,323.920349 
	C285.789825,317.246063 286.058929,310.569122 290.529541,304.597870 
	C293.965271,300.008850 298.884399,298.983917 304.346527,299.913635 
	C307.818176,300.504517 310.412170,302.421143 312.708130,305.457855 
z"/>
<path fill="#9E373B" opacity="1.000000" stroke="none" 
	d="
M92.012466,322.418030 
	C92.649666,326.327637 95.024086,327.491821 98.178398,327.414856 
	C101.721764,327.328400 104.129929,325.562622 105.175690,322.116028 
	C107.007469,316.078918 105.701012,309.882294 106.056671,303.768860 
	C106.155556,302.069031 105.866402,300.337341 108.447731,300.384552 
	C110.121651,300.415161 111.368607,300.589081 111.356171,302.749054 
	C111.306381,311.401184 111.345764,320.053833 111.329834,328.706238 
	C111.328079,329.659485 111.510742,330.907654 110.132401,331.032990 
	C108.888077,331.146179 106.911072,331.751160 106.579071,330.266113 
	C105.766098,326.629700 104.514900,329.125824 103.477715,329.866638 
	C99.550461,332.671539 95.368019,332.746002 91.198006,330.771729 
	C87.358871,328.954102 86.652092,325.291565 86.617538,321.484619 
	C86.563164,315.494965 86.630440,309.504120 86.566551,303.514618 
	C86.546005,301.587982 86.869049,300.356079 89.242035,300.359314 
	C91.602615,300.362549 91.928024,301.564728 91.913651,303.506317 
	C91.868088,309.661804 91.937363,315.818176 92.012466,322.418030 
z"/>
<path fill="#A54548" opacity="1.000000" stroke="none" 
	d="
M80.881027,300.783173 
	C81.431488,302.472382 82.130936,304.685028 80.139763,304.674255 
	C76.028648,304.652008 76.736717,307.240540 76.733513,309.644012 
	C76.728432,313.464447 76.673332,317.286133 76.752663,321.104919 
	C76.807671,323.752625 75.770218,327.077972 80.370125,327.197021 
	C81.640831,327.229919 81.432625,328.644409 81.434349,329.610229 
	C81.436584,330.863556 80.572113,331.186432 79.535133,331.491364 
	C75.201431,332.765839 71.550980,330.364807 71.312569,325.580780 
	C71.040054,320.112427 71.243301,314.621094 71.205132,309.139984 
	C71.190857,307.091064 71.791496,305.055603 68.341042,304.593903 
	C66.243195,304.313202 66.357086,300.966766 68.170898,300.690643 
	C71.811287,300.136383 71.222069,297.942749 71.205414,295.706055 
	C71.190178,293.659180 70.932602,291.747009 74.108627,291.816071 
	C77.477776,291.889343 76.810341,294.170044 76.679466,295.975830 
	C76.464386,298.943390 77.130241,300.851410 80.881027,300.783173 
z"/>
<path fill="#9C3235" opacity="1.000000" stroke="none" 
	d="
M275.344849,311.924866 
	C275.161804,317.649750 275.024017,322.967285 275.090363,328.282318 
	C275.116699,330.391907 274.514954,331.177917 272.290466,331.179962 
	C269.617035,331.182404 269.940277,329.518616 269.940155,327.870819 
	C269.939667,319.892181 269.918274,311.913483 269.958069,303.935028 
	C269.965668,302.410126 269.344177,300.568695 272.095703,300.378265 
	C274.843475,300.188110 274.972473,301.888855 275.133423,303.917297 
	C277.306641,302.843811 278.434540,300.376678 280.847076,300.040497 
	C282.284393,299.840210 284.384277,298.514679 284.858856,301.174896 
	C285.187408,303.016479 285.579346,305.041016 282.304779,305.254425 
	C278.658783,305.492126 276.338379,307.883942 275.344849,311.924866 
z"/>
<path fill="#FBC780" opacity="1.000000" stroke="none" 
	d="
M641.236938,73.214569 
	C641.000916,73.015114 640.973816,72.570343 640.944702,72.349503 
	C642.550842,72.128654 644.186096,72.128654 645.821350,72.128654 
	C645.861328,72.318283 645.901367,72.507912 645.941345,72.697540 
	C644.451904,72.936363 642.962463,73.175194 641.236938,73.214569 
z"/>
<path fill="#F2D8C6" opacity="1.000000" stroke="none" 
	d="
M190.267502,174.871735 
	C189.708221,176.304474 188.562378,176.524353 187.323425,177.035645 
	C186.675369,175.134827 188.509125,175.181702 189.738190,174.303741 
	C190.210419,174.370285 190.357880,174.518661 190.267502,174.871735 
z"/>
<path fill="#F2D8C6" opacity="1.000000" stroke="none" 
	d="
M186.709381,176.857361 
	C186.241287,178.289749 184.911209,178.859863 183.328888,179.287537 
	C183.508163,177.392471 184.958435,177.078766 186.709381,176.857361 
z"/>
<path fill="#FFFEFE" opacity="1.000000" stroke="none" 
	d="
M190.356705,175.033859 
	C190.029678,175.076416 190.100372,174.651154 190.081665,174.436523 
	C190.520721,174.021423 190.978455,173.820953 191.749222,173.829285 
	C192.020813,174.960449 191.318420,174.926910 190.356705,175.033859 
z"/>
<path fill="#F2D8C6" opacity="1.000000" stroke="none" 
	d="
M182.759811,178.968506 
	C183.140518,179.240814 183.240555,179.433960 183.272919,179.637848 
	C183.287338,179.728760 183.165619,179.841293 182.844482,179.990479 
	C182.315384,180.132477 182.047470,180.227997 181.387817,180.154404 
	C181.481247,179.621414 181.966415,179.257553 182.759811,178.968506 
z"/>
<path fill="#FFFEFE" opacity="1.000000" stroke="none" 
	d="
M180.780334,180.259933 
	C181.259705,180.015457 181.523315,180.045639 182.185104,180.056366 
	C182.279007,180.343048 181.974747,180.649155 181.348495,181.006897 
	C180.872543,180.883881 180.718552,180.709229 180.780334,180.259933 
z"/>
<path fill="#FEFDFD" opacity="1.000000" stroke="none" 
	d="
M191.429001,237.395477 
	C183.014191,220.024658 188.765625,201.998947 204.512177,195.397598 
	C218.425247,189.564880 235.186401,194.939697 241.864502,207.375427 
	C249.059647,220.773972 244.661911,238.675827 232.180481,246.796036 
	C220.029922,254.701050 202.658615,251.541595 193.144562,239.690796 
	C192.624207,239.042618 192.148178,238.358856 191.429001,237.395477 
z"/>
<path fill="#FDFBFB" opacity="1.000000" stroke="none" 
	d="
M96.391373,188.079010 
	C91.874619,195.522720 84.592712,196.780991 77.305359,197.693222 
	C63.211796,199.457458 63.198479,199.352646 63.198780,185.331360 
	C63.198914,179.188431 63.245956,173.044968 63.174076,166.902878 
	C63.151051,164.935730 63.533974,163.730591 65.872482,163.832993 
	C72.155685,164.108170 78.474792,163.334763 84.714577,164.841629 
	C96.724525,167.741974 101.089355,176.070343 96.391373,188.079010 
z"/>
<path fill="#FFFEFE" opacity="1.000000" stroke="none" 
	d="
M652.989014,196.002335 
	C670.446167,212.315826 665.820679,239.005539 651.205566,251.225067 
	C634.405823,265.271118 609.970703,262.698944 596.774170,245.254868 
	C585.482788,230.329193 587.467102,207.885529 601.787537,193.153381 
	C611.626892,183.031158 636.610779,179.817032 652.989014,196.002335 
z"/>
<path fill="#FFFEFE" opacity="1.000000" stroke="none" 
	d="
M477.305115,228.313904 
	C475.781464,211.675613 481.216797,198.498718 495.505493,190.236481 
	C508.929932,182.474014 522.988647,182.421188 536.248779,190.800034 
	C550.963989,200.098328 557.005066,217.732193 551.796265,233.979202 
	C546.797791,249.569794 531.252136,260.448395 514.290955,260.224762 
	C497.568268,260.004272 482.650085,248.235733 478.092102,231.658813 
	C477.827393,230.695969 477.630493,229.714493 477.305115,228.313904 
z"/>
<path fill="#FFFEFD" opacity="1.000000" stroke="none" 
	d="
M745.087158,185.520447 
	C758.393250,189.423340 766.888306,197.858948 771.613342,210.303589 
	C772.827026,213.500214 772.969910,215.414429 768.367310,215.374176 
	C746.585876,215.183578 724.801453,215.226227 703.019104,215.349640 
	C699.215942,215.371185 698.527710,214.469666 699.790710,210.786804 
	C706.523804,191.153687 722.389282,182.076614 745.087158,185.520447 
z"/>
<path fill="#FAF4F4" opacity="1.000000" stroke="none" 
	d="
M207.675781,313.795288 
	C207.926239,307.483795 211.337006,302.277435 213.669342,296.452698 
	C215.347946,301.198334 216.960800,305.968658 218.729935,310.680298 
	C219.784714,313.489471 218.726410,314.169830 216.066025,313.993713 
	C213.416351,313.818390 210.747391,313.934174 207.675781,313.795288 
z"/>
<path fill="#FDFBFB" opacity="1.000000" stroke="none" 
	d="
M358.195282,310.764374 
	C359.408142,306.014496 362.324249,303.926056 366.677704,304.321411 
	C370.938629,304.708344 372.927551,307.811157 373.692596,311.626160 
	C374.408844,315.197693 374.670197,318.831604 373.284851,322.383850 
	C371.992737,325.696991 369.553558,327.403625 366.082855,327.440735 
	C362.588928,327.478119 360.170288,325.777618 358.871277,322.447266 
	C357.429596,318.751343 357.807434,314.971313 358.195282,310.764374 
z"/>
<path fill="#FDFBFB" opacity="1.000000" stroke="none" 
	d="
M138.186432,322.775848 
	C135.990646,326.860962 132.859909,328.110413 128.838913,327.114655 
	C125.041611,326.174316 123.708549,323.108704 123.162384,319.739288 
	C122.633583,316.476929 122.625633,313.151520 123.489738,309.887238 
	C124.414116,306.395294 126.791985,304.586456 130.247635,304.294464 
	C133.755005,303.998138 136.431549,305.606598 137.777084,308.822174 
	C139.618622,313.223175 139.865082,317.795990 138.186432,322.775848 
z"/>
<path fill="#FCF8F8" opacity="1.000000" stroke="none" 
	d="
M257.033447,310.245636 
	C258.191406,314.260132 257.880310,317.870667 256.925781,321.442719 
	C255.909180,325.247070 253.471115,327.458374 249.423615,327.418060 
	C245.464630,327.378632 243.006088,325.435394 241.901535,321.498474 
	C240.724579,317.303375 241.281479,313.258301 242.451431,309.259521 
	C243.394775,306.035187 245.885239,304.370117 249.161407,304.272797 
	C253.063217,304.156921 255.825821,305.948181 257.033447,310.245636 
z"/>
<path fill="#FBF7F7" opacity="1.000000" stroke="none" 
	d="
M339.103455,316.216125 
	C340.793732,323.129211 337.710571,327.469482 331.234894,327.740967 
	C328.297668,327.864136 325.920990,326.824066 325.261017,323.682495 
	C324.570312,320.394592 326.505005,318.691040 329.416443,318.014923 
	C332.477051,317.304138 335.591492,316.825165 339.103455,316.216125 
z"/>
<path fill="#FCFAFA" opacity="1.000000" stroke="none" 
	d="
M293.064514,320.642242 
	C291.990692,316.438721 292.181702,312.695709 293.791534,309.082825 
	C295.194824,305.933472 297.619019,304.119476 301.122833,304.052856 
	C304.641418,303.985962 307.190125,305.740601 308.613861,308.846436 
	C310.725647,313.453217 310.674286,318.208405 308.607758,322.811035 
	C307.187225,325.974915 304.495483,327.525055 301.024139,327.444702 
	C296.788666,327.346649 294.453125,324.783844 293.064514,320.642242 
z"/>
</svg>